<svg width="45" height="42" viewBox="0 0 45 42" fill="none" xmlns="http://www.w3.org/2000/svg">
<path d="M13.9583 5.09191C13.2179 5.09191 12.5079 5.32925 11.9843 5.75172C11.4608 6.1742 11.1667 6.7472 11.1667 7.34466C11.1667 7.94213 11.4608 8.51513 11.9843 8.9376C12.5079 9.36008 13.2179 9.59742 13.9583 9.59742C14.6987 9.59742 15.4088 9.36008 15.9323 8.9376C16.4559 8.51513 16.75 7.94213 16.75 7.34466C16.75 6.7472 16.4559 6.1742 15.9323 5.75172C15.4088 5.32925 14.6987 5.09191 13.9583 5.09191ZM6.05792 5.09191C6.63468 3.77284 7.70427 2.63062 9.11926 1.82268C10.5342 1.01474 12.2249 0.580872 13.9583 0.580872C15.6917 0.580872 17.3824 1.01474 18.7974 1.82268C20.2124 2.63062 21.282 3.77284 21.8587 5.09191H41.875C42.6154 5.09191 43.3255 5.32925 43.849 5.75172C44.3725 6.1742 44.6667 6.7472 44.6667 7.34466C44.6667 7.94213 44.3725 8.51513 43.849 8.9376C43.3255 9.36008 42.6154 9.59742 41.875 9.59742H21.8587C21.282 10.9165 20.2124 12.0587 18.7974 12.8666C17.3824 13.6746 15.6917 14.1085 13.9583 14.1085C12.2249 14.1085 10.5342 13.6746 9.11926 12.8666C7.70427 12.0587 6.63468 10.9165 6.05792 9.59742H2.79167C2.05127 9.59742 1.3412 9.36008 0.817661 8.9376C0.294122 8.51513 0 7.94213 0 7.34466C0 6.7472 0.294122 6.1742 0.817661 5.75172C1.3412 5.32925 2.05127 5.09191 2.79167 5.09191H6.05792ZM30.7083 18.6085C29.9679 18.6085 29.2579 18.8458 28.7343 19.2683C28.2108 19.6907 27.9167 20.2637 27.9167 20.8612C27.9167 21.4587 28.2108 22.0317 28.7343 22.4541C29.2579 22.8766 29.9679 23.114 30.7083 23.114C31.4487 23.114 32.1588 22.8766 32.6823 22.4541C33.2059 22.0317 33.5 21.4587 33.5 20.8612C33.5 20.2637 33.2059 19.6907 32.6823 19.2683C32.1588 18.8458 31.4487 18.6085 30.7083 18.6085ZM22.8079 18.6085C23.3847 17.2894 24.4543 16.1472 25.8693 15.3392C27.2842 14.5313 28.9749 14.0974 30.7083 14.0974C32.4417 14.0974 34.1324 14.5313 35.5474 15.3392C36.9624 16.1472 38.032 17.2894 38.6087 18.6085H41.875C42.6154 18.6085 43.3255 18.8458 43.849 19.2683C44.3725 19.6907 44.6667 20.2637 44.6667 20.8612C44.6667 21.4587 44.3725 22.0317 43.849 22.4541C43.3255 22.8766 42.6154 23.114 41.875 23.114H38.6087C38.032 24.433 36.9624 25.5753 35.5474 26.3832C34.1324 27.1911 32.4417 27.625 30.7083 27.625C28.9749 27.625 27.2842 27.1911 25.8693 26.3832C24.4543 25.5753 23.3847 24.433 22.8079 23.114H2.79167C2.05127 23.114 1.3412 22.8766 0.817661 22.4541C0.294122 22.0317 0 21.4587 0 20.8612C0 20.2637 0.294122 19.6907 0.817661 19.2683C1.3412 18.8458 2.05127 18.6085 2.79167 18.6085H22.8079ZM13.9583 32.125C13.2179 32.125 12.5079 32.3623 11.9843 32.7848C11.4608 33.2073 11.1667 33.7803 11.1667 34.3778C11.1667 34.9752 11.4608 35.5482 11.9843 35.9707C12.5079 36.3932 13.2179 36.6305 13.9583 36.6305C14.6987 36.6305 15.4088 36.3932 15.9323 35.9707C16.4559 35.5482 16.75 34.9752 16.75 34.3778C16.75 33.7803 16.4559 33.2073 15.9323 32.7848C15.4088 32.3623 14.6987 32.125 13.9583 32.125ZM6.05792 32.125C6.63468 30.8059 7.70427 29.6637 9.11926 28.8558C10.5342 28.0478 12.2249 27.614 13.9583 27.614C15.6917 27.614 17.3824 28.0478 18.7974 28.8558C20.2124 29.6637 21.282 30.8059 21.8587 32.125H41.875C42.6154 32.125 43.3255 32.3623 43.849 32.7848C44.3725 33.2073 44.6667 33.7803 44.6667 34.3778C44.6667 34.9752 44.3725 35.5482 43.849 35.9707C43.3255 36.3932 42.6154 36.6305 41.875 36.6305H21.8587C21.282 37.9496 20.2124 39.0918 18.7974 39.8997C17.3824 40.7077 15.6917 41.1416 13.9583 41.1416C12.2249 41.1416 10.5342 40.7077 9.11926 39.8997C7.70427 39.0918 6.63468 37.9496 6.05792 36.6305H2.79167C2.05127 36.6305 1.3412 36.3932 0.817661 35.9707C0.294122 35.5482 0 34.9752 0 34.3778C0 33.7803 0.294122 33.2073 0.817661 32.7848C1.3412 32.3623 2.05127 32.125 2.79167 32.125H6.05792Z" fill="#120202"/>
</svg>
